<?xml version="1.0" encoding="UTF-8"?>
<svg id="Layer_2" xmlns="http://www.w3.org/2000/svg" xmlns:xlink="http://www.w3.org/1999/xlink" viewBox="0 0 1016.75 125.46">
  <defs>
    <style>
      .cls-1 {
        fill: none;
      }

      .cls-2 {
        fill: url(#linear-gradient);
      }

      .cls-3 {
        clip-path: url(#clippath);
      }
    </style>
    <clipPath id="clippath">
      <path class="cls-1" d="M58.47,88.35c0-2.19-.6-4.04-1.8-5.55-1.2-1.51-3.26-2.94-6.17-4.3-2.92-1.35-7.03-2.76-12.35-4.22-12.82-3.54-22.04-8.21-27.67-13.99-5.63-5.78-8.44-13.41-8.44-22.9,0-11.36,4.04-20.29,12.11-26.81C22.22,4.07,33.24.81,47.21.81c6.77,0,13.52.84,20.24,2.5,6.72,1.67,12.32,3.91,16.8,6.72l-4.06,24.38c-4.17-2.6-9.17-4.69-15-6.25-5.84-1.56-11.36-2.34-16.57-2.34-10.84,0-16.26,3.49-16.26,10.47,0,3.02,1.25,5.42,3.75,7.19,2.5,1.77,7.14,3.7,13.91,5.78,14.17,3.96,24.33,8.83,30.48,14.61,6.15,5.78,9.22,13.42,9.22,22.9,0,11.98-4.2,21.28-12.58,27.9-8.39,6.62-20.14,9.92-35.25,9.92-5.31,0-10.63-.44-15.94-1.33-5.31-.89-10.24-2.08-14.77-3.59-4.53-1.51-8.26-3.26-11.18-5.24l2.66-25.32c5,3.23,10.94,5.78,17.82,7.66s13.54,2.81,20.01,2.81c11.98,0,17.97-3.75,17.97-11.25v.02ZM289.8,3.33h31.57v93.31h50.33v25.48h-81.9V3.33ZM461.41,88.35c0-2.19-.6-4.04-1.8-5.55-1.2-1.51-3.26-2.94-6.17-4.3-2.92-1.35-7.03-2.76-12.35-4.22-12.82-3.54-22.04-8.21-27.67-13.99-5.63-5.78-8.44-13.41-8.44-22.9,0-11.36,4.04-20.29,12.11-26.81,8.07-6.51,19.09-9.77,33.06-9.77,6.77,0,13.52.84,20.24,2.5,6.72,1.67,12.32,3.91,16.8,6.72l-4.06,24.38c-4.17-2.6-9.17-4.69-15.01-6.25s-11.36-2.34-16.57-2.34c-10.84,0-16.25,3.49-16.25,10.47,0,3.02,1.25,5.42,3.75,7.19,2.5,1.77,7.14,3.7,13.91,5.78,14.17,3.96,24.33,8.83,30.48,14.61,6.15,5.78,9.22,13.42,9.22,22.9,0,11.98-4.19,21.28-12.58,27.9-8.39,6.62-20.14,9.92-35.25,9.92-5.31,0-10.63-.44-15.94-1.33-5.31-.89-10.24-2.08-14.77-3.59-4.53-1.51-8.26-3.26-11.17-5.24l2.66-25.32c5,3.23,10.94,5.78,17.82,7.66s13.54,2.81,20.01,2.81c11.98,0,17.97-3.75,17.97-11.25v.02ZM531.43,3.33h82.53v23.91h-53.77v22.82h47.36v23.91h-47.36v24.23h55.96v23.91h-84.71V3.33h0ZM656.32,3.33h26.88l53.45,72.52V3.33h28.76v118.79h-27.04l-53.45-72.37v72.37h-28.6V3.33h0ZM862.01,88.35c0-2.19-.6-4.04-1.8-5.55-1.2-1.51-3.26-2.94-6.17-4.3-2.92-1.35-7.03-2.76-12.35-4.22-12.82-3.54-22.04-8.21-27.67-13.99-5.63-5.78-8.44-13.41-8.44-22.9,0-11.36,4.04-20.29,12.11-26.81,8.07-6.51,19.09-9.77,33.06-9.77,6.77,0,13.52.84,20.24,2.5,6.72,1.67,12.32,3.91,16.8,6.72l-4.06,24.38c-4.17-2.6-9.17-4.69-15.01-6.25s-11.36-2.34-16.57-2.34c-10.84,0-16.25,3.49-16.25,10.47,0,3.02,1.25,5.42,3.75,7.19,2.5,1.77,7.14,3.7,13.91,5.78,14.17,3.96,24.33,8.83,30.48,14.61,6.15,5.78,9.22,13.42,9.22,22.9,0,11.98-4.19,21.28-12.58,27.9s-20.14,9.92-35.25,9.92c-5.31,0-10.63-.44-15.94-1.33-5.31-.89-23.03-6.85-25.94-8.83l2.66-25.32c5,3.23,10.94,5.78,17.82,7.66s13.54,2.81,20.01,2.81c11.98,0,17.97-3.75,17.97-11.25v.02ZM932.03,3.33h82.53v23.91h-53.77v22.82h47.36v23.91h-47.36v24.23h55.96v23.91h-84.71V3.33h0ZM250.59,55.5h-36.76l31.49-18.97-7.45-12.37-29.9,18.02,17.37-30.28-12.53-7.18-17.72,30.9V0h-14.44v36.76l-18.97-31.48-12.37,7.45,18.02,29.9-30.29-17.37-7.18,12.53,30.9,17.72h-35.63v14.44h36.76l-31.48,18.97,7.45,12.37,29.9-18.02-17.37,30.29,12.53,7.18,17.72-30.9v35.62h14.44v-36.76l18.97,31.49,12.37-7.45-18.02-29.9,30.29,17.37,7.18-12.53-30.9-17.72h35.62v-14.46ZM187.85,72.31c-5.3,0-9.59-4.29-9.59-9.59s4.29-9.59,9.59-9.59,9.59,4.29,9.59,9.59-4.29,9.59-9.59,9.59Z"/>
    </clipPath>
    <linearGradient id="linear-gradient" x1="-16.34" y1="789.7" x2="1035.22" y2="789.7" gradientTransform="translate(0 854.75) scale(1 -1)" gradientUnits="userSpaceOnUse">
      <stop offset=".18" stop-color="#f98f2a"/>
      <stop offset=".26" stop-color="#f28e31"/>
      <stop offset=".4" stop-color="#df8d46"/>
      <stop offset=".56" stop-color="#c18b68"/>
      <stop offset=".74" stop-color="#978997"/>
      <stop offset=".93" stop-color="#6687d0"/>
    </linearGradient>
  </defs>
  <g id="Layer_1-2" data-name="Layer_1">
    <g class="cls-3">
      <rect class="cls-2" x="-16.34" y="-27.25" width="1051.56" height="184.6"/>
    </g>
  </g>
</svg>