<?xml version="1.0" encoding="UTF-8"?>
<svg id="Layer_1" xmlns="http://www.w3.org/2000/svg" viewBox="0 0 16 16">
  <defs>
    <style>
      .cls-1 {
        fill: #f98f2a;
      }
    </style>
  </defs>
  <path class="cls-1" d="M15.54,7.13h-4.42l3.78-2.28-.9-1.49-3.59,2.17,2.09-3.64-1.51-.86-2.13,3.71V.46h-1.74v4.42l-2.28-3.78-1.49.9,2.17,3.59L1.89,3.5l-.86,1.51,3.71,2.13H.46v1.74h4.42l-3.78,2.28.9,1.49,3.59-2.17-2.09,3.64,1.51.86,2.13-3.71v4.28h1.74v-4.42l2.28,3.78,1.49-.9-2.17-3.59,3.64,2.09.86-1.51-3.71-2.13h4.28v-1.74ZM8,9.15c-.64,0-1.15-.52-1.15-1.15s.52-1.15,1.15-1.15,1.15.52,1.15,1.15-.52,1.15-1.15,1.15Z"/>
</svg>